<mxfile host="65bd71144e" modified="2020-11-23T14:09:34.149Z" agent="5.0 (Windows NT 10.0; Win64; x64) AppleWebKit/537.36 (KHTML, like Gecko) Code/1.49.1 Chrome/83.0.4103.122 Electron/9.2.1 Safari/537.36" etag="ukfL1B-ELBMhuuKo7c1G" version="13.6.5">
    <diagram id="hUaUUEETBPXvP7G0MNGl" name="Page-1">
        <mxGraphModel dx="2617" dy="879" grid="1" gridSize="10" guides="1" tooltips="1" connect="1" arrows="1" fold="1" page="1" pageScale="1" pageWidth="1200" pageHeight="1920" math="0" shadow="0">
            <root>
                <mxCell id="0"/>
                <mxCell id="1" parent="0"/>
                <mxCell id="15" style="edgeStyle=orthogonalEdgeStyle;rounded=0;orthogonalLoop=1;jettySize=auto;html=1;entryX=0;entryY=0.5;entryDx=0;entryDy=0;" edge="1" parent="1" source="VSjZPFVT8OjuE20q-rED-2" target="16">
                    <mxGeometry relative="1" as="geometry"/>
                </mxCell>
                <mxCell id="86" style="edgeStyle=orthogonalEdgeStyle;rounded=0;orthogonalLoop=1;jettySize=auto;html=1;entryX=0;entryY=0.5;entryDx=0;entryDy=0;" edge="1" parent="1" source="VSjZPFVT8OjuE20q-rED-2" target="58">
                    <mxGeometry relative="1" as="geometry"/>
                </mxCell>
                <mxCell id="93" style="edgeStyle=orthogonalEdgeStyle;rounded=0;orthogonalLoop=1;jettySize=auto;html=1;entryX=0;entryY=0.5;entryDx=0;entryDy=0;" edge="1" parent="1" source="42" target="77">
                    <mxGeometry relative="1" as="geometry"/>
                </mxCell>
                <mxCell id="VSjZPFVT8OjuE20q-rED-1" value="Stock" style="shape=table;startSize=30;container=1;collapsible=1;childLayout=tableLayout;fixedRows=1;rowLines=1;fontStyle=1;align=center;resizeLast=1;verticalAlign=middle;fillColor=none;" parent="1" vertex="1">
                    <mxGeometry y="500" width="210" height="190" as="geometry"/>
                </mxCell>
                <mxCell id="VSjZPFVT8OjuE20q-rED-2" value="" style="shape=partialRectangle;collapsible=0;dropTarget=0;pointerEvents=0;fillColor=none;top=0;left=0;bottom=1;right=0;points=[[0,0.5],[1,0.5]];portConstraint=eastwest;" parent="VSjZPFVT8OjuE20q-rED-1" vertex="1">
                    <mxGeometry y="30" width="210" height="30" as="geometry"/>
                </mxCell>
                <mxCell id="VSjZPFVT8OjuE20q-rED-3" value="PK" style="shape=partialRectangle;connectable=0;fillColor=none;top=0;left=0;bottom=0;right=0;fontStyle=1;overflow=hidden;" parent="VSjZPFVT8OjuE20q-rED-2" vertex="1">
                    <mxGeometry width="30" height="30" as="geometry"/>
                </mxCell>
                <mxCell id="VSjZPFVT8OjuE20q-rED-4" value="stock_ID" style="shape=partialRectangle;connectable=0;fillColor=none;top=0;left=0;bottom=0;right=0;align=left;spacingLeft=6;fontStyle=5;overflow=hidden;" parent="VSjZPFVT8OjuE20q-rED-2" vertex="1">
                    <mxGeometry x="30" width="180" height="30" as="geometry"/>
                </mxCell>
                <mxCell id="VSjZPFVT8OjuE20q-rED-8" value="" style="shape=partialRectangle;collapsible=0;dropTarget=0;pointerEvents=0;fillColor=none;top=0;left=0;bottom=0;right=0;points=[[0,0.5],[1,0.5]];portConstraint=eastwest;" parent="VSjZPFVT8OjuE20q-rED-1" vertex="1">
                    <mxGeometry y="60" width="210" height="30" as="geometry"/>
                </mxCell>
                <mxCell id="VSjZPFVT8OjuE20q-rED-9" value="" style="shape=partialRectangle;connectable=0;fillColor=none;top=0;left=0;bottom=0;right=0;editable=1;overflow=hidden;" parent="VSjZPFVT8OjuE20q-rED-8" vertex="1">
                    <mxGeometry width="30" height="30" as="geometry"/>
                </mxCell>
                <mxCell id="VSjZPFVT8OjuE20q-rED-10" value="ticker" style="shape=partialRectangle;connectable=0;fillColor=none;top=0;left=0;bottom=0;right=0;align=left;spacingLeft=6;overflow=hidden;" parent="VSjZPFVT8OjuE20q-rED-8" vertex="1">
                    <mxGeometry x="30" width="180" height="30" as="geometry"/>
                </mxCell>
                <mxCell id="38" value="" style="shape=partialRectangle;collapsible=0;dropTarget=0;pointerEvents=0;fillColor=none;top=0;left=0;bottom=0;right=0;points=[[0,0.5],[1,0.5]];portConstraint=eastwest;" vertex="1" parent="VSjZPFVT8OjuE20q-rED-1">
                    <mxGeometry y="90" width="210" height="30" as="geometry"/>
                </mxCell>
                <mxCell id="39" value="" style="shape=partialRectangle;connectable=0;fillColor=none;top=0;left=0;bottom=0;right=0;editable=1;overflow=hidden;" vertex="1" parent="38">
                    <mxGeometry width="30" height="30" as="geometry"/>
                </mxCell>
                <mxCell id="40" value="company" style="shape=partialRectangle;connectable=0;fillColor=none;top=0;left=0;bottom=0;right=0;align=left;spacingLeft=6;overflow=hidden;" vertex="1" parent="38">
                    <mxGeometry x="30" width="180" height="30" as="geometry"/>
                </mxCell>
                <mxCell id="VSjZPFVT8OjuE20q-rED-11" value="" style="shape=partialRectangle;collapsible=0;dropTarget=0;pointerEvents=0;fillColor=none;top=0;left=0;bottom=0;right=0;points=[[0,0.5],[1,0.5]];portConstraint=eastwest;" parent="VSjZPFVT8OjuE20q-rED-1" vertex="1">
                    <mxGeometry y="120" width="210" height="30" as="geometry"/>
                </mxCell>
                <mxCell id="VSjZPFVT8OjuE20q-rED-12" value="" style="shape=partialRectangle;connectable=0;fillColor=none;top=0;left=0;bottom=0;right=0;editable=1;overflow=hidden;" parent="VSjZPFVT8OjuE20q-rED-11" vertex="1">
                    <mxGeometry width="30" height="30" as="geometry"/>
                </mxCell>
                <mxCell id="VSjZPFVT8OjuE20q-rED-13" value="exchanger" style="shape=partialRectangle;connectable=0;fillColor=none;top=0;left=0;bottom=0;right=0;align=left;spacingLeft=6;overflow=hidden;" parent="VSjZPFVT8OjuE20q-rED-11" vertex="1">
                    <mxGeometry x="30" width="180" height="30" as="geometry"/>
                </mxCell>
                <mxCell id="VSjZPFVT8OjuE20q-rED-31" value="" style="shape=partialRectangle;collapsible=0;dropTarget=0;pointerEvents=0;fillColor=none;top=0;left=0;bottom=0;right=0;points=[[0,0.5],[1,0.5]];portConstraint=eastwest;" parent="VSjZPFVT8OjuE20q-rED-1" vertex="1">
                    <mxGeometry y="150" width="210" height="30" as="geometry"/>
                </mxCell>
                <mxCell id="VSjZPFVT8OjuE20q-rED-32" value="" style="shape=partialRectangle;connectable=0;fillColor=none;top=0;left=0;bottom=0;right=0;editable=1;overflow=hidden;" parent="VSjZPFVT8OjuE20q-rED-31" vertex="1">
                    <mxGeometry width="30" height="30" as="geometry"/>
                </mxCell>
                <mxCell id="VSjZPFVT8OjuE20q-rED-33" value="description" style="shape=partialRectangle;connectable=0;fillColor=none;top=0;left=0;bottom=0;right=0;align=left;spacingLeft=6;overflow=hidden;" parent="VSjZPFVT8OjuE20q-rED-31" vertex="1">
                    <mxGeometry x="30" width="180" height="30" as="geometry"/>
                </mxCell>
                <mxCell id="2" value="Etoro" style="shape=table;startSize=30;container=1;collapsible=1;childLayout=tableLayout;fixedRows=1;rowLines=1;fontStyle=1;align=center;resizeLast=1;verticalAlign=middle;fillColor=none;" vertex="1" parent="1">
                    <mxGeometry x="315" y="500" width="210" height="220" as="geometry"/>
                </mxCell>
                <mxCell id="3" value="" style="shape=partialRectangle;collapsible=0;dropTarget=0;pointerEvents=0;fillColor=none;top=0;left=0;bottom=1;right=0;points=[[0,0.5],[1,0.5]];portConstraint=eastwest;" vertex="1" parent="2">
                    <mxGeometry y="30" width="210" height="30" as="geometry"/>
                </mxCell>
                <mxCell id="4" value="PK" style="shape=partialRectangle;connectable=0;fillColor=none;top=0;left=0;bottom=0;right=0;fontStyle=1;overflow=hidden;" vertex="1" parent="3">
                    <mxGeometry width="30" height="30" as="geometry"/>
                </mxCell>
                <mxCell id="5" value="etoro_ID" style="shape=partialRectangle;connectable=0;fillColor=none;top=0;left=0;bottom=0;right=0;align=left;spacingLeft=6;fontStyle=5;overflow=hidden;" vertex="1" parent="3">
                    <mxGeometry x="30" width="180" height="30" as="geometry"/>
                </mxCell>
                <mxCell id="16" value="" style="shape=partialRectangle;collapsible=0;dropTarget=0;pointerEvents=0;fillColor=none;top=0;left=0;bottom=1;right=0;points=[[0,0.5],[1,0.5]];portConstraint=eastwest;" vertex="1" parent="2">
                    <mxGeometry y="60" width="210" height="30" as="geometry"/>
                </mxCell>
                <mxCell id="17" value="FK" style="shape=partialRectangle;connectable=0;fillColor=none;top=0;left=0;bottom=0;right=0;fontStyle=1;overflow=hidden;" vertex="1" parent="16">
                    <mxGeometry width="30" height="30" as="geometry"/>
                </mxCell>
                <mxCell id="18" value="stock_ID" style="shape=partialRectangle;connectable=0;fillColor=none;top=0;left=0;bottom=0;right=0;align=left;spacingLeft=6;fontStyle=5;overflow=hidden;" vertex="1" parent="16">
                    <mxGeometry x="30" width="180" height="30" as="geometry"/>
                </mxCell>
                <mxCell id="6" value="" style="shape=partialRectangle;collapsible=0;dropTarget=0;pointerEvents=0;fillColor=none;top=0;left=0;bottom=0;right=0;points=[[0,0.5],[1,0.5]];portConstraint=eastwest;" vertex="1" parent="2">
                    <mxGeometry y="90" width="210" height="30" as="geometry"/>
                </mxCell>
                <mxCell id="7" value="" style="shape=partialRectangle;connectable=0;fillColor=none;top=0;left=0;bottom=0;right=0;editable=1;overflow=hidden;" vertex="1" parent="6">
                    <mxGeometry width="30" height="30" as="geometry"/>
                </mxCell>
                <mxCell id="8" value="ticker" style="shape=partialRectangle;connectable=0;fillColor=none;top=0;left=0;bottom=0;right=0;align=left;spacingLeft=6;overflow=hidden;" vertex="1" parent="6">
                    <mxGeometry x="30" width="180" height="30" as="geometry"/>
                </mxCell>
                <mxCell id="9" value="" style="shape=partialRectangle;collapsible=0;dropTarget=0;pointerEvents=0;fillColor=none;top=0;left=0;bottom=0;right=0;points=[[0,0.5],[1,0.5]];portConstraint=eastwest;" vertex="1" parent="2">
                    <mxGeometry y="120" width="210" height="30" as="geometry"/>
                </mxCell>
                <mxCell id="10" value="" style="shape=partialRectangle;connectable=0;fillColor=none;top=0;left=0;bottom=0;right=0;editable=1;overflow=hidden;" vertex="1" parent="9">
                    <mxGeometry width="30" height="30" as="geometry"/>
                </mxCell>
                <mxCell id="11" value="exchanger" style="shape=partialRectangle;connectable=0;fillColor=none;top=0;left=0;bottom=0;right=0;align=left;spacingLeft=6;overflow=hidden;" vertex="1" parent="9">
                    <mxGeometry x="30" width="180" height="30" as="geometry"/>
                </mxCell>
                <mxCell id="12" value="" style="shape=partialRectangle;collapsible=0;dropTarget=0;pointerEvents=0;fillColor=none;top=0;left=0;bottom=0;right=0;points=[[0,0.5],[1,0.5]];portConstraint=eastwest;" vertex="1" parent="2">
                    <mxGeometry y="150" width="210" height="30" as="geometry"/>
                </mxCell>
                <mxCell id="13" value="" style="shape=partialRectangle;connectable=0;fillColor=none;top=0;left=0;bottom=0;right=0;editable=1;overflow=hidden;" vertex="1" parent="12">
                    <mxGeometry width="30" height="30" as="geometry"/>
                </mxCell>
                <mxCell id="14" value="url" style="shape=partialRectangle;connectable=0;fillColor=none;top=0;left=0;bottom=0;right=0;align=left;spacingLeft=6;overflow=hidden;" vertex="1" parent="12">
                    <mxGeometry x="30" width="180" height="30" as="geometry"/>
                </mxCell>
                <mxCell id="35" value="" style="shape=partialRectangle;collapsible=0;dropTarget=0;pointerEvents=0;fillColor=none;top=0;left=0;bottom=0;right=0;points=[[0,0.5],[1,0.5]];portConstraint=eastwest;" vertex="1" parent="2">
                    <mxGeometry y="180" width="210" height="30" as="geometry"/>
                </mxCell>
                <mxCell id="36" value="" style="shape=partialRectangle;connectable=0;fillColor=none;top=0;left=0;bottom=0;right=0;editable=1;overflow=hidden;" vertex="1" parent="35">
                    <mxGeometry width="30" height="30" as="geometry"/>
                </mxCell>
                <mxCell id="37" value="exchanger" style="shape=partialRectangle;connectable=0;fillColor=none;top=0;left=0;bottom=0;right=0;align=left;spacingLeft=6;overflow=hidden;" vertex="1" parent="35">
                    <mxGeometry x="30" width="180" height="30" as="geometry"/>
                </mxCell>
                <mxCell id="204" value="Strategy" style="shape=table;startSize=30;container=1;collapsible=1;childLayout=tableLayout;fixedRows=1;rowLines=1;fontStyle=1;align=center;resizeLast=1;verticalAlign=middle;fillColor=none;" vertex="1" parent="1">
                    <mxGeometry x="-880" y="270" width="210" height="140" as="geometry"/>
                </mxCell>
                <mxCell id="205" value="" style="shape=partialRectangle;collapsible=0;dropTarget=0;pointerEvents=0;fillColor=none;top=0;left=0;bottom=1;right=0;points=[[0,0.5],[1,0.5]];portConstraint=eastwest;" vertex="1" parent="204">
                    <mxGeometry y="30" width="210" height="30" as="geometry"/>
                </mxCell>
                <mxCell id="206" value="PK" style="shape=partialRectangle;connectable=0;fillColor=none;top=0;left=0;bottom=0;right=0;fontStyle=1;overflow=hidden;" vertex="1" parent="205">
                    <mxGeometry width="30" height="30" as="geometry"/>
                </mxCell>
                <mxCell id="207" value="strategy_ID" style="shape=partialRectangle;connectable=0;fillColor=none;top=0;left=0;bottom=0;right=0;align=left;spacingLeft=6;fontStyle=5;overflow=hidden;" vertex="1" parent="205">
                    <mxGeometry x="30" width="180" height="30" as="geometry"/>
                </mxCell>
                <mxCell id="208" value="" style="shape=partialRectangle;collapsible=0;dropTarget=0;pointerEvents=0;fillColor=none;top=0;left=0;bottom=1;right=0;points=[[0,0.5],[1,0.5]];portConstraint=eastwest;" vertex="1" parent="204">
                    <mxGeometry y="60" width="210" height="30" as="geometry"/>
                </mxCell>
                <mxCell id="209" value="" style="shape=partialRectangle;connectable=0;fillColor=none;top=0;left=0;bottom=0;right=0;fontStyle=1;overflow=hidden;" vertex="1" parent="208">
                    <mxGeometry width="30" height="30" as="geometry"/>
                </mxCell>
                <mxCell id="210" value="name" style="shape=partialRectangle;connectable=0;fillColor=none;top=0;left=0;bottom=0;right=0;align=left;spacingLeft=6;fontStyle=5;overflow=hidden;" vertex="1" parent="208">
                    <mxGeometry x="30" width="180" height="30" as="geometry"/>
                </mxCell>
                <mxCell id="211" value="" style="shape=partialRectangle;collapsible=0;dropTarget=0;pointerEvents=0;fillColor=none;top=0;left=0;bottom=0;right=0;points=[[0,0.5],[1,0.5]];portConstraint=eastwest;" vertex="1" parent="204">
                    <mxGeometry y="90" width="210" height="30" as="geometry"/>
                </mxCell>
                <mxCell id="212" value="" style="shape=partialRectangle;connectable=0;fillColor=none;top=0;left=0;bottom=0;right=0;editable=1;overflow=hidden;" vertex="1" parent="211">
                    <mxGeometry width="30" height="30" as="geometry"/>
                </mxCell>
                <mxCell id="213" value="version" style="shape=partialRectangle;connectable=0;fillColor=none;top=0;left=0;bottom=0;right=0;align=left;spacingLeft=6;overflow=hidden;" vertex="1" parent="211">
                    <mxGeometry x="30" width="180" height="30" as="geometry"/>
                </mxCell>
                <mxCell id="214" value="" style="shape=partialRectangle;collapsible=0;dropTarget=0;pointerEvents=0;fillColor=none;top=0;left=0;bottom=0;right=0;points=[[0,0.5],[1,0.5]];portConstraint=eastwest;" vertex="1" parent="204">
                    <mxGeometry y="120" width="210" height="20" as="geometry"/>
                </mxCell>
                <mxCell id="215" value="" style="shape=partialRectangle;connectable=0;fillColor=none;top=0;left=0;bottom=0;right=0;editable=1;overflow=hidden;" vertex="1" parent="214">
                    <mxGeometry width="30" height="20" as="geometry"/>
                </mxCell>
                <mxCell id="216" value="type" style="shape=partialRectangle;connectable=0;fillColor=none;top=0;left=0;bottom=0;right=0;align=left;spacingLeft=6;overflow=hidden;" vertex="1" parent="214">
                    <mxGeometry x="30" width="180" height="20" as="geometry"/>
                </mxCell>
                <mxCell id="233" value="Indicator" style="shape=table;startSize=30;container=1;collapsible=1;childLayout=tableLayout;fixedRows=1;rowLines=1;fontStyle=1;align=center;resizeLast=1;verticalAlign=middle;fillColor=none;" vertex="1" parent="1">
                    <mxGeometry x="315" y="90" width="210" height="200" as="geometry"/>
                </mxCell>
                <mxCell id="234" value="" style="shape=partialRectangle;collapsible=0;dropTarget=0;pointerEvents=0;fillColor=none;top=0;left=0;bottom=1;right=0;points=[[0,0.5],[1,0.5]];portConstraint=eastwest;" vertex="1" parent="233">
                    <mxGeometry y="30" width="210" height="30" as="geometry"/>
                </mxCell>
                <mxCell id="235" value="PK" style="shape=partialRectangle;connectable=0;fillColor=none;top=0;left=0;bottom=0;right=0;fontStyle=1;overflow=hidden;" vertex="1" parent="234">
                    <mxGeometry width="30" height="30" as="geometry"/>
                </mxCell>
                <mxCell id="236" value="indicator_ID" style="shape=partialRectangle;connectable=0;fillColor=none;top=0;left=0;bottom=0;right=0;align=left;spacingLeft=6;fontStyle=5;overflow=hidden;" vertex="1" parent="234">
                    <mxGeometry x="30" width="180" height="30" as="geometry"/>
                </mxCell>
                <mxCell id="237" value="" style="shape=partialRectangle;collapsible=0;dropTarget=0;pointerEvents=0;fillColor=none;top=0;left=0;bottom=1;right=0;points=[[0,0.5],[1,0.5]];portConstraint=eastwest;" vertex="1" parent="233">
                    <mxGeometry y="60" width="210" height="30" as="geometry"/>
                </mxCell>
                <mxCell id="238" value="FK" style="shape=partialRectangle;connectable=0;fillColor=none;top=0;left=0;bottom=0;right=0;fontStyle=1;overflow=hidden;" vertex="1" parent="237">
                    <mxGeometry width="30" height="30" as="geometry"/>
                </mxCell>
                <mxCell id="239" value="stock_ID" style="shape=partialRectangle;connectable=0;fillColor=none;top=0;left=0;bottom=0;right=0;align=left;spacingLeft=6;fontStyle=5;overflow=hidden;" vertex="1" parent="237">
                    <mxGeometry x="30" width="180" height="30" as="geometry"/>
                </mxCell>
                <mxCell id="240" value="" style="shape=partialRectangle;collapsible=0;dropTarget=0;pointerEvents=0;fillColor=none;top=0;left=0;bottom=1;right=0;points=[[0,0.5],[1,0.5]];portConstraint=eastwest;" vertex="1" parent="233">
                    <mxGeometry y="90" width="210" height="30" as="geometry"/>
                </mxCell>
                <mxCell id="241" value="" style="shape=partialRectangle;connectable=0;fillColor=none;top=0;left=0;bottom=0;right=0;fontStyle=1;overflow=hidden;" vertex="1" parent="240">
                    <mxGeometry width="30" height="30" as="geometry"/>
                </mxCell>
                <mxCell id="242" value="indicator_key" style="shape=partialRectangle;connectable=0;fillColor=none;top=0;left=0;bottom=0;right=0;align=left;spacingLeft=6;fontStyle=4;overflow=hidden;" vertex="1" parent="240">
                    <mxGeometry x="30" width="180" height="30" as="geometry"/>
                </mxCell>
                <mxCell id="274" value="" style="shape=partialRectangle;collapsible=0;dropTarget=0;pointerEvents=0;fillColor=none;top=0;left=0;bottom=1;right=0;points=[[0,0.5],[1,0.5]];portConstraint=eastwest;" vertex="1" parent="233">
                    <mxGeometry y="120" width="210" height="30" as="geometry"/>
                </mxCell>
                <mxCell id="275" value="" style="shape=partialRectangle;connectable=0;fillColor=none;top=0;left=0;bottom=0;right=0;fontStyle=1;overflow=hidden;" vertex="1" parent="274">
                    <mxGeometry width="30" height="30" as="geometry"/>
                </mxCell>
                <mxCell id="276" value="indicator_value" style="shape=partialRectangle;connectable=0;fillColor=none;top=0;left=0;bottom=0;right=0;align=left;spacingLeft=6;fontStyle=4;overflow=hidden;" vertex="1" parent="274">
                    <mxGeometry x="30" width="180" height="30" as="geometry"/>
                </mxCell>
                <mxCell id="252" value="" style="shape=partialRectangle;collapsible=0;dropTarget=0;pointerEvents=0;fillColor=none;top=0;left=0;bottom=0;right=0;points=[[0,0.5],[1,0.5]];portConstraint=eastwest;" vertex="1" parent="233">
                    <mxGeometry y="150" width="210" height="30" as="geometry"/>
                </mxCell>
                <mxCell id="253" value="" style="shape=partialRectangle;connectable=0;fillColor=none;top=0;left=0;bottom=0;right=0;editable=1;overflow=hidden;" vertex="1" parent="252">
                    <mxGeometry width="30" height="30" as="geometry"/>
                </mxCell>
                <mxCell id="254" value="main_timeframe" style="shape=partialRectangle;connectable=0;fillColor=none;top=0;left=0;bottom=0;right=0;align=left;spacingLeft=6;overflow=hidden;" vertex="1" parent="252">
                    <mxGeometry x="30" width="180" height="30" as="geometry"/>
                </mxCell>
                <mxCell id="246" value="" style="shape=partialRectangle;collapsible=0;dropTarget=0;pointerEvents=0;fillColor=none;top=0;left=0;bottom=0;right=0;points=[[0,0.5],[1,0.5]];portConstraint=eastwest;" vertex="1" parent="233">
                    <mxGeometry y="180" width="210" height="20" as="geometry"/>
                </mxCell>
                <mxCell id="247" value="" style="shape=partialRectangle;connectable=0;fillColor=none;top=0;left=0;bottom=0;right=0;editable=1;overflow=hidden;" vertex="1" parent="246">
                    <mxGeometry width="30" height="20" as="geometry"/>
                </mxCell>
                <mxCell id="248" value="datetime" style="shape=partialRectangle;connectable=0;fillColor=none;top=0;left=0;bottom=0;right=0;align=left;spacingLeft=6;overflow=hidden;" vertex="1" parent="246">
                    <mxGeometry x="30" width="180" height="20" as="geometry"/>
                </mxCell>
                <mxCell id="57" value="Stock_List" style="shape=table;startSize=30;container=1;collapsible=1;childLayout=tableLayout;fixedRows=1;rowLines=1;fontStyle=1;align=center;resizeLast=1;verticalAlign=middle;fillColor=none;" vertex="1" parent="1">
                    <mxGeometry y="770" width="210" height="100" as="geometry"/>
                </mxCell>
                <mxCell id="58" value="" style="shape=partialRectangle;collapsible=0;dropTarget=0;pointerEvents=0;fillColor=none;top=0;left=0;bottom=1;right=0;points=[[0,0.5],[1,0.5]];portConstraint=eastwest;" vertex="1" parent="57">
                    <mxGeometry y="30" width="210" height="30" as="geometry"/>
                </mxCell>
                <mxCell id="59" value="FK" style="shape=partialRectangle;connectable=0;fillColor=none;top=0;left=0;bottom=0;right=0;fontStyle=1;overflow=hidden;" vertex="1" parent="58">
                    <mxGeometry width="30" height="30" as="geometry"/>
                </mxCell>
                <mxCell id="60" value="stock_ID" style="shape=partialRectangle;connectable=0;fillColor=none;top=0;left=0;bottom=0;right=0;align=left;spacingLeft=6;fontStyle=5;overflow=hidden;" vertex="1" parent="58">
                    <mxGeometry x="30" width="180" height="30" as="geometry"/>
                </mxCell>
                <mxCell id="77" value="" style="shape=partialRectangle;collapsible=0;dropTarget=0;pointerEvents=0;fillColor=none;top=0;left=0;bottom=1;right=0;points=[[0,0.5],[1,0.5]];portConstraint=eastwest;" vertex="1" parent="57">
                    <mxGeometry y="60" width="210" height="30" as="geometry"/>
                </mxCell>
                <mxCell id="78" value="FK" style="shape=partialRectangle;connectable=0;fillColor=none;top=0;left=0;bottom=0;right=0;fontStyle=1;overflow=hidden;" vertex="1" parent="77">
                    <mxGeometry width="30" height="30" as="geometry"/>
                </mxCell>
                <mxCell id="79" value="list_ID" style="shape=partialRectangle;connectable=0;fillColor=none;top=0;left=0;bottom=0;right=0;align=left;spacingLeft=6;fontStyle=5;overflow=hidden;" vertex="1" parent="77">
                    <mxGeometry x="30" width="180" height="30" as="geometry"/>
                </mxCell>
                <mxCell id="117" value="Report" style="shape=table;startSize=30;container=1;collapsible=1;childLayout=tableLayout;fixedRows=1;rowLines=1;fontStyle=1;align=center;resizeLast=1;verticalAlign=middle;fillColor=none;" vertex="1" parent="1">
                    <mxGeometry x="-360" y="80" width="210" height="290" as="geometry"/>
                </mxCell>
                <mxCell id="118" value="" style="shape=partialRectangle;collapsible=0;dropTarget=0;pointerEvents=0;fillColor=none;top=0;left=0;bottom=1;right=0;points=[[0,0.5],[1,0.5]];portConstraint=eastwest;" vertex="1" parent="117">
                    <mxGeometry y="30" width="210" height="30" as="geometry"/>
                </mxCell>
                <mxCell id="119" value="PK" style="shape=partialRectangle;connectable=0;fillColor=none;top=0;left=0;bottom=0;right=0;fontStyle=1;overflow=hidden;" vertex="1" parent="118">
                    <mxGeometry width="30" height="30" as="geometry"/>
                </mxCell>
                <mxCell id="120" value="report_ID" style="shape=partialRectangle;connectable=0;fillColor=none;top=0;left=0;bottom=0;right=0;align=left;spacingLeft=6;fontStyle=5;overflow=hidden;" vertex="1" parent="118">
                    <mxGeometry x="30" width="180" height="30" as="geometry"/>
                </mxCell>
                <mxCell id="139" value="" style="shape=partialRectangle;collapsible=0;dropTarget=0;pointerEvents=0;fillColor=none;top=0;left=0;bottom=1;right=0;points=[[0,0.5],[1,0.5]];portConstraint=eastwest;" vertex="1" parent="117">
                    <mxGeometry y="60" width="210" height="30" as="geometry"/>
                </mxCell>
                <mxCell id="140" value="FK" style="shape=partialRectangle;connectable=0;fillColor=none;top=0;left=0;bottom=0;right=0;fontStyle=1;overflow=hidden;" vertex="1" parent="139">
                    <mxGeometry width="30" height="30" as="geometry"/>
                </mxCell>
                <mxCell id="141" value="stock_ID" style="shape=partialRectangle;connectable=0;fillColor=none;top=0;left=0;bottom=0;right=0;align=left;spacingLeft=6;fontStyle=5;overflow=hidden;" vertex="1" parent="139">
                    <mxGeometry x="30" width="180" height="30" as="geometry"/>
                </mxCell>
                <mxCell id="199" value="" style="shape=partialRectangle;collapsible=0;dropTarget=0;pointerEvents=0;fillColor=none;top=0;left=0;bottom=1;right=0;points=[[0,0.5],[1,0.5]];portConstraint=eastwest;" vertex="1" parent="117">
                    <mxGeometry y="90" width="210" height="30" as="geometry"/>
                </mxCell>
                <mxCell id="200" value="FK" style="shape=partialRectangle;connectable=0;fillColor=none;top=0;left=0;bottom=0;right=0;fontStyle=1;overflow=hidden;" vertex="1" parent="199">
                    <mxGeometry width="30" height="30" as="geometry"/>
                </mxCell>
                <mxCell id="201" value="schedule_ID" style="shape=partialRectangle;connectable=0;fillColor=none;top=0;left=0;bottom=0;right=0;align=left;spacingLeft=6;fontStyle=5;overflow=hidden;" vertex="1" parent="199">
                    <mxGeometry x="30" width="180" height="30" as="geometry"/>
                </mxCell>
                <mxCell id="121" value="" style="shape=partialRectangle;collapsible=0;dropTarget=0;pointerEvents=0;fillColor=none;top=0;left=0;bottom=0;right=0;points=[[0,0.5],[1,0.5]];portConstraint=eastwest;" vertex="1" parent="117">
                    <mxGeometry y="120" width="210" height="30" as="geometry"/>
                </mxCell>
                <mxCell id="122" value="" style="shape=partialRectangle;connectable=0;fillColor=none;top=0;left=0;bottom=0;right=0;editable=1;overflow=hidden;" vertex="1" parent="121">
                    <mxGeometry width="30" height="30" as="geometry"/>
                </mxCell>
                <mxCell id="123" value="strategy_ID" style="shape=partialRectangle;connectable=0;fillColor=none;top=0;left=0;bottom=0;right=0;align=left;spacingLeft=6;overflow=hidden;fontStyle=1" vertex="1" parent="121">
                    <mxGeometry x="30" width="180" height="30" as="geometry"/>
                </mxCell>
                <mxCell id="124" value="" style="shape=partialRectangle;collapsible=0;dropTarget=0;pointerEvents=0;fillColor=none;top=0;left=0;bottom=0;right=0;points=[[0,0.5],[1,0.5]];portConstraint=eastwest;" vertex="1" parent="117">
                    <mxGeometry y="150" width="210" height="20" as="geometry"/>
                </mxCell>
                <mxCell id="125" value="" style="shape=partialRectangle;connectable=0;fillColor=none;top=0;left=0;bottom=0;right=0;editable=1;overflow=hidden;" vertex="1" parent="124">
                    <mxGeometry width="30" height="20" as="geometry"/>
                </mxCell>
                <mxCell id="126" value="from_date" style="shape=partialRectangle;connectable=0;fillColor=none;top=0;left=0;bottom=0;right=0;align=left;spacingLeft=6;overflow=hidden;" vertex="1" parent="124">
                    <mxGeometry x="30" width="180" height="20" as="geometry"/>
                </mxCell>
                <mxCell id="127" value="" style="shape=partialRectangle;collapsible=0;dropTarget=0;pointerEvents=0;fillColor=none;top=0;left=0;bottom=0;right=0;points=[[0,0.5],[1,0.5]];portConstraint=eastwest;" vertex="1" parent="117">
                    <mxGeometry y="170" width="210" height="30" as="geometry"/>
                </mxCell>
                <mxCell id="128" value="" style="shape=partialRectangle;connectable=0;fillColor=none;top=0;left=0;bottom=0;right=0;editable=1;overflow=hidden;" vertex="1" parent="127">
                    <mxGeometry width="30" height="30" as="geometry"/>
                </mxCell>
                <mxCell id="129" value="to_date" style="shape=partialRectangle;connectable=0;fillColor=none;top=0;left=0;bottom=0;right=0;align=left;spacingLeft=6;overflow=hidden;" vertex="1" parent="127">
                    <mxGeometry x="30" width="180" height="30" as="geometry"/>
                </mxCell>
                <mxCell id="130" value="" style="shape=partialRectangle;collapsible=0;dropTarget=0;pointerEvents=0;fillColor=none;top=0;left=0;bottom=0;right=0;points=[[0,0.5],[1,0.5]];portConstraint=eastwest;" vertex="1" parent="117">
                    <mxGeometry y="200" width="210" height="30" as="geometry"/>
                </mxCell>
                <mxCell id="131" value="" style="shape=partialRectangle;connectable=0;fillColor=none;top=0;left=0;bottom=0;right=0;editable=1;overflow=hidden;" vertex="1" parent="130">
                    <mxGeometry width="30" height="30" as="geometry"/>
                </mxCell>
                <mxCell id="132" value="main_timeframe" style="shape=partialRectangle;connectable=0;fillColor=none;top=0;left=0;bottom=0;right=0;align=left;spacingLeft=6;overflow=hidden;" vertex="1" parent="130">
                    <mxGeometry x="30" width="180" height="30" as="geometry"/>
                </mxCell>
                <mxCell id="136" value="" style="shape=partialRectangle;collapsible=0;dropTarget=0;pointerEvents=0;fillColor=none;top=0;left=0;bottom=0;right=0;points=[[0,0.5],[1,0.5]];portConstraint=eastwest;" vertex="1" parent="117">
                    <mxGeometry y="230" width="210" height="30" as="geometry"/>
                </mxCell>
                <mxCell id="137" value="" style="shape=partialRectangle;connectable=0;fillColor=none;top=0;left=0;bottom=0;right=0;editable=1;overflow=hidden;" vertex="1" parent="136">
                    <mxGeometry width="30" height="30" as="geometry"/>
                </mxCell>
                <mxCell id="138" value="tag" style="shape=partialRectangle;connectable=0;fillColor=none;top=0;left=0;bottom=0;right=0;align=left;spacingLeft=6;overflow=hidden;" vertex="1" parent="136">
                    <mxGeometry x="30" width="180" height="30" as="geometry"/>
                </mxCell>
                <mxCell id="170" value="" style="shape=partialRectangle;collapsible=0;dropTarget=0;pointerEvents=0;fillColor=none;top=0;left=0;bottom=0;right=0;points=[[0,0.5],[1,0.5]];portConstraint=eastwest;" vertex="1" parent="117">
                    <mxGeometry y="260" width="210" height="30" as="geometry"/>
                </mxCell>
                <mxCell id="171" value="" style="shape=partialRectangle;connectable=0;fillColor=none;top=0;left=0;bottom=0;right=0;editable=1;overflow=hidden;" vertex="1" parent="170">
                    <mxGeometry width="30" height="30" as="geometry"/>
                </mxCell>
                <mxCell id="172" value="timestamp" style="shape=partialRectangle;connectable=0;fillColor=none;top=0;left=0;bottom=0;right=0;align=left;spacingLeft=6;overflow=hidden;" vertex="1" parent="170">
                    <mxGeometry x="30" width="180" height="30" as="geometry"/>
                </mxCell>
                <mxCell id="144" value="Report_Meta" style="shape=table;startSize=30;container=1;collapsible=1;childLayout=tableLayout;fixedRows=1;rowLines=1;fontStyle=1;align=center;resizeLast=1;verticalAlign=middle;fillColor=none;" vertex="1" parent="1">
                    <mxGeometry x="-690" y="80" width="210" height="150" as="geometry"/>
                </mxCell>
                <mxCell id="145" value="" style="shape=partialRectangle;collapsible=0;dropTarget=0;pointerEvents=0;fillColor=none;top=0;left=0;bottom=1;right=0;points=[[0,0.5],[1,0.5]];portConstraint=eastwest;" vertex="1" parent="144">
                    <mxGeometry y="30" width="210" height="30" as="geometry"/>
                </mxCell>
                <mxCell id="146" value="FK" style="shape=partialRectangle;connectable=0;fillColor=none;top=0;left=0;bottom=0;right=0;fontStyle=1;overflow=hidden;" vertex="1" parent="145">
                    <mxGeometry width="30" height="30" as="geometry"/>
                </mxCell>
                <mxCell id="147" value="report_ID" style="shape=partialRectangle;connectable=0;fillColor=none;top=0;left=0;bottom=0;right=0;align=left;spacingLeft=6;fontStyle=5;overflow=hidden;" vertex="1" parent="145">
                    <mxGeometry x="30" width="180" height="30" as="geometry"/>
                </mxCell>
                <mxCell id="148" value="" style="shape=partialRectangle;collapsible=0;dropTarget=0;pointerEvents=0;fillColor=none;top=0;left=0;bottom=1;right=0;points=[[0,0.5],[1,0.5]];portConstraint=eastwest;" vertex="1" parent="144">
                    <mxGeometry y="60" width="210" height="30" as="geometry"/>
                </mxCell>
                <mxCell id="149" value="" style="shape=partialRectangle;connectable=0;fillColor=none;top=0;left=0;bottom=0;right=0;fontStyle=1;overflow=hidden;" vertex="1" parent="148">
                    <mxGeometry width="30" height="30" as="geometry"/>
                </mxCell>
                <mxCell id="150" value="meta_key" style="shape=partialRectangle;connectable=0;fillColor=none;top=0;left=0;bottom=0;right=0;align=left;spacingLeft=6;fontStyle=5;overflow=hidden;" vertex="1" parent="148">
                    <mxGeometry x="30" width="180" height="30" as="geometry"/>
                </mxCell>
                <mxCell id="151" value="" style="shape=partialRectangle;collapsible=0;dropTarget=0;pointerEvents=0;fillColor=none;top=0;left=0;bottom=0;right=0;points=[[0,0.5],[1,0.5]];portConstraint=eastwest;" vertex="1" parent="144">
                    <mxGeometry y="90" width="210" height="30" as="geometry"/>
                </mxCell>
                <mxCell id="152" value="" style="shape=partialRectangle;connectable=0;fillColor=none;top=0;left=0;bottom=0;right=0;editable=1;overflow=hidden;" vertex="1" parent="151">
                    <mxGeometry width="30" height="30" as="geometry"/>
                </mxCell>
                <mxCell id="153" value="meta_value" style="shape=partialRectangle;connectable=0;fillColor=none;top=0;left=0;bottom=0;right=0;align=left;spacingLeft=6;overflow=hidden;" vertex="1" parent="151">
                    <mxGeometry x="30" width="180" height="30" as="geometry"/>
                </mxCell>
                <mxCell id="166" value="" style="shape=partialRectangle;collapsible=0;dropTarget=0;pointerEvents=0;fillColor=none;top=0;left=0;bottom=0;right=0;points=[[0,0.5],[1,0.5]];portConstraint=eastwest;" vertex="1" parent="144">
                    <mxGeometry y="120" width="210" height="30" as="geometry"/>
                </mxCell>
                <mxCell id="167" value="" style="shape=partialRectangle;connectable=0;fillColor=none;top=0;left=0;bottom=0;right=0;editable=1;overflow=hidden;" vertex="1" parent="166">
                    <mxGeometry width="30" height="30" as="geometry"/>
                </mxCell>
                <mxCell id="168" value="" style="shape=partialRectangle;connectable=0;fillColor=none;top=0;left=0;bottom=0;right=0;align=left;spacingLeft=6;overflow=hidden;" vertex="1" parent="166">
                    <mxGeometry x="30" width="180" height="30" as="geometry"/>
                </mxCell>
                <mxCell id="41" value="List" style="shape=table;startSize=30;container=1;collapsible=1;childLayout=tableLayout;fixedRows=1;rowLines=1;fontStyle=1;align=center;resizeLast=1;verticalAlign=middle;fillColor=none;" vertex="1" parent="1">
                    <mxGeometry y="970" width="210" height="130" as="geometry"/>
                </mxCell>
                <mxCell id="42" value="" style="shape=partialRectangle;collapsible=0;dropTarget=0;pointerEvents=0;fillColor=none;top=0;left=0;bottom=1;right=0;points=[[0,0.5],[1,0.5]];portConstraint=eastwest;" vertex="1" parent="41">
                    <mxGeometry y="30" width="210" height="30" as="geometry"/>
                </mxCell>
                <mxCell id="43" value="PK" style="shape=partialRectangle;connectable=0;fillColor=none;top=0;left=0;bottom=0;right=0;fontStyle=1;overflow=hidden;" vertex="1" parent="42">
                    <mxGeometry width="30" height="30" as="geometry"/>
                </mxCell>
                <mxCell id="44" value="list_ID" style="shape=partialRectangle;connectable=0;fillColor=none;top=0;left=0;bottom=0;right=0;align=left;spacingLeft=6;fontStyle=5;overflow=hidden;" vertex="1" parent="42">
                    <mxGeometry x="30" width="180" height="30" as="geometry"/>
                </mxCell>
                <mxCell id="45" value="" style="shape=partialRectangle;collapsible=0;dropTarget=0;pointerEvents=0;fillColor=none;top=0;left=0;bottom=0;right=0;points=[[0,0.5],[1,0.5]];portConstraint=eastwest;" vertex="1" parent="41">
                    <mxGeometry y="60" width="210" height="30" as="geometry"/>
                </mxCell>
                <mxCell id="46" value="" style="shape=partialRectangle;connectable=0;fillColor=none;top=0;left=0;bottom=0;right=0;editable=1;overflow=hidden;" vertex="1" parent="45">
                    <mxGeometry width="30" height="30" as="geometry"/>
                </mxCell>
                <mxCell id="47" value="title" style="shape=partialRectangle;connectable=0;fillColor=none;top=0;left=0;bottom=0;right=0;align=left;spacingLeft=6;overflow=hidden;" vertex="1" parent="45">
                    <mxGeometry x="30" width="180" height="30" as="geometry"/>
                </mxCell>
                <mxCell id="54" value="" style="shape=partialRectangle;collapsible=0;dropTarget=0;pointerEvents=0;fillColor=none;top=0;left=0;bottom=0;right=0;points=[[0,0.5],[1,0.5]];portConstraint=eastwest;" vertex="1" parent="41">
                    <mxGeometry y="90" width="210" height="30" as="geometry"/>
                </mxCell>
                <mxCell id="55" value="" style="shape=partialRectangle;connectable=0;fillColor=none;top=0;left=0;bottom=0;right=0;editable=1;overflow=hidden;" vertex="1" parent="54">
                    <mxGeometry width="30" height="30" as="geometry"/>
                </mxCell>
                <mxCell id="56" value="description" style="shape=partialRectangle;connectable=0;fillColor=none;top=0;left=0;bottom=0;right=0;align=left;spacingLeft=6;overflow=hidden;" vertex="1" parent="54">
                    <mxGeometry x="30" width="180" height="30" as="geometry"/>
                </mxCell>
                <mxCell id="94" value="Stock_Price" style="shape=table;startSize=30;container=1;collapsible=1;childLayout=tableLayout;fixedRows=1;rowLines=1;fontStyle=1;align=center;resizeLast=1;verticalAlign=middle;fillColor=none;" vertex="1" parent="1">
                    <mxGeometry x="-340" y="500" width="210" height="250" as="geometry"/>
                </mxCell>
                <mxCell id="95" value="" style="shape=partialRectangle;collapsible=0;dropTarget=0;pointerEvents=0;fillColor=none;top=0;left=0;bottom=1;right=0;points=[[0,0.5],[1,0.5]];portConstraint=eastwest;" vertex="1" parent="94">
                    <mxGeometry y="30" width="210" height="30" as="geometry"/>
                </mxCell>
                <mxCell id="96" value="FK" style="shape=partialRectangle;connectable=0;fillColor=none;top=0;left=0;bottom=0;right=0;fontStyle=1;overflow=hidden;" vertex="1" parent="95">
                    <mxGeometry width="30" height="30" as="geometry"/>
                </mxCell>
                <mxCell id="97" value="stock_ID" style="shape=partialRectangle;connectable=0;fillColor=none;top=0;left=0;bottom=0;right=0;align=left;spacingLeft=6;fontStyle=5;overflow=hidden;" vertex="1" parent="95">
                    <mxGeometry x="30" width="180" height="30" as="geometry"/>
                </mxCell>
                <mxCell id="98" value="" style="shape=partialRectangle;collapsible=0;dropTarget=0;pointerEvents=0;fillColor=none;top=0;left=0;bottom=0;right=0;points=[[0,0.5],[1,0.5]];portConstraint=eastwest;" vertex="1" parent="94">
                    <mxGeometry y="60" width="210" height="30" as="geometry"/>
                </mxCell>
                <mxCell id="99" value="" style="shape=partialRectangle;connectable=0;fillColor=none;top=0;left=0;bottom=0;right=0;editable=1;overflow=hidden;" vertex="1" parent="98">
                    <mxGeometry width="30" height="30" as="geometry"/>
                </mxCell>
                <mxCell id="100" value="datetime" style="shape=partialRectangle;connectable=0;fillColor=none;top=0;left=0;bottom=0;right=0;align=left;spacingLeft=6;overflow=hidden;" vertex="1" parent="98">
                    <mxGeometry x="30" width="180" height="30" as="geometry"/>
                </mxCell>
                <mxCell id="101" value="" style="shape=partialRectangle;collapsible=0;dropTarget=0;pointerEvents=0;fillColor=none;top=0;left=0;bottom=0;right=0;points=[[0,0.5],[1,0.5]];portConstraint=eastwest;" vertex="1" parent="94">
                    <mxGeometry y="90" width="210" height="30" as="geometry"/>
                </mxCell>
                <mxCell id="102" value="" style="shape=partialRectangle;connectable=0;fillColor=none;top=0;left=0;bottom=0;right=0;editable=1;overflow=hidden;" vertex="1" parent="101">
                    <mxGeometry width="30" height="30" as="geometry"/>
                </mxCell>
                <mxCell id="103" value="open" style="shape=partialRectangle;connectable=0;fillColor=none;top=0;left=0;bottom=0;right=0;align=left;spacingLeft=6;overflow=hidden;" vertex="1" parent="101">
                    <mxGeometry x="30" width="180" height="30" as="geometry"/>
                </mxCell>
                <mxCell id="104" value="" style="shape=partialRectangle;collapsible=0;dropTarget=0;pointerEvents=0;fillColor=none;top=0;left=0;bottom=0;right=0;points=[[0,0.5],[1,0.5]];portConstraint=eastwest;" vertex="1" parent="94">
                    <mxGeometry y="120" width="210" height="30" as="geometry"/>
                </mxCell>
                <mxCell id="105" value="" style="shape=partialRectangle;connectable=0;fillColor=none;top=0;left=0;bottom=0;right=0;editable=1;overflow=hidden;" vertex="1" parent="104">
                    <mxGeometry width="30" height="30" as="geometry"/>
                </mxCell>
                <mxCell id="106" value="high" style="shape=partialRectangle;connectable=0;fillColor=none;top=0;left=0;bottom=0;right=0;align=left;spacingLeft=6;overflow=hidden;" vertex="1" parent="104">
                    <mxGeometry x="30" width="180" height="30" as="geometry"/>
                </mxCell>
                <mxCell id="107" value="" style="shape=partialRectangle;collapsible=0;dropTarget=0;pointerEvents=0;fillColor=none;top=0;left=0;bottom=0;right=0;points=[[0,0.5],[1,0.5]];portConstraint=eastwest;" vertex="1" parent="94">
                    <mxGeometry y="150" width="210" height="30" as="geometry"/>
                </mxCell>
                <mxCell id="108" value="" style="shape=partialRectangle;connectable=0;fillColor=none;top=0;left=0;bottom=0;right=0;editable=1;overflow=hidden;" vertex="1" parent="107">
                    <mxGeometry width="30" height="30" as="geometry"/>
                </mxCell>
                <mxCell id="109" value="low" style="shape=partialRectangle;connectable=0;fillColor=none;top=0;left=0;bottom=0;right=0;align=left;spacingLeft=6;overflow=hidden;" vertex="1" parent="107">
                    <mxGeometry x="30" width="180" height="30" as="geometry"/>
                </mxCell>
                <mxCell id="111" value="" style="shape=partialRectangle;collapsible=0;dropTarget=0;pointerEvents=0;fillColor=none;top=0;left=0;bottom=0;right=0;points=[[0,0.5],[1,0.5]];portConstraint=eastwest;" vertex="1" parent="94">
                    <mxGeometry y="180" width="210" height="30" as="geometry"/>
                </mxCell>
                <mxCell id="112" value="" style="shape=partialRectangle;connectable=0;fillColor=none;top=0;left=0;bottom=0;right=0;editable=1;overflow=hidden;" vertex="1" parent="111">
                    <mxGeometry width="30" height="30" as="geometry"/>
                </mxCell>
                <mxCell id="113" value="close" style="shape=partialRectangle;connectable=0;fillColor=none;top=0;left=0;bottom=0;right=0;align=left;spacingLeft=6;overflow=hidden;" vertex="1" parent="111">
                    <mxGeometry x="30" width="180" height="30" as="geometry"/>
                </mxCell>
                <mxCell id="114" value="" style="shape=partialRectangle;collapsible=0;dropTarget=0;pointerEvents=0;fillColor=none;top=0;left=0;bottom=0;right=0;points=[[0,0.5],[1,0.5]];portConstraint=eastwest;" vertex="1" parent="94">
                    <mxGeometry y="210" width="210" height="30" as="geometry"/>
                </mxCell>
                <mxCell id="115" value="" style="shape=partialRectangle;connectable=0;fillColor=none;top=0;left=0;bottom=0;right=0;editable=1;overflow=hidden;" vertex="1" parent="114">
                    <mxGeometry width="30" height="30" as="geometry"/>
                </mxCell>
                <mxCell id="116" value="timeframe" style="shape=partialRectangle;connectable=0;fillColor=none;top=0;left=0;bottom=0;right=0;align=left;spacingLeft=6;overflow=hidden;" vertex="1" parent="114">
                    <mxGeometry x="30" width="180" height="30" as="geometry"/>
                </mxCell>
                <mxCell id="110" style="edgeStyle=orthogonalEdgeStyle;rounded=0;orthogonalLoop=1;jettySize=auto;html=1;" edge="1" parent="1" source="VSjZPFVT8OjuE20q-rED-2" target="95">
                    <mxGeometry relative="1" as="geometry"/>
                </mxCell>
                <mxCell id="143" style="edgeStyle=orthogonalEdgeStyle;rounded=0;orthogonalLoop=1;jettySize=auto;html=1;exitX=0;exitY=0.5;exitDx=0;exitDy=0;" edge="1" parent="1" source="VSjZPFVT8OjuE20q-rED-2" target="139">
                    <mxGeometry relative="1" as="geometry"/>
                </mxCell>
                <mxCell id="169" style="edgeStyle=orthogonalEdgeStyle;rounded=0;orthogonalLoop=1;jettySize=auto;html=1;exitX=1;exitY=0.5;exitDx=0;exitDy=0;" edge="1" parent="1" source="145" target="118">
                    <mxGeometry relative="1" as="geometry">
                        <mxPoint x="-370.0000000000002" y="124.9655172413793" as="targetPoint"/>
                    </mxGeometry>
                </mxCell>
                <mxCell id="173" value="Schedule" style="shape=table;startSize=30;container=1;collapsible=1;childLayout=tableLayout;fixedRows=1;rowLines=1;fontStyle=1;align=center;resizeLast=1;verticalAlign=middle;fillColor=none;" vertex="1" parent="1">
                    <mxGeometry x="-690" y="480" width="210" height="260" as="geometry"/>
                </mxCell>
                <mxCell id="174" value="" style="shape=partialRectangle;collapsible=0;dropTarget=0;pointerEvents=0;fillColor=none;top=0;left=0;bottom=1;right=0;points=[[0,0.5],[1,0.5]];portConstraint=eastwest;" vertex="1" parent="173">
                    <mxGeometry y="30" width="210" height="30" as="geometry"/>
                </mxCell>
                <mxCell id="175" value="PK" style="shape=partialRectangle;connectable=0;fillColor=none;top=0;left=0;bottom=0;right=0;fontStyle=1;overflow=hidden;" vertex="1" parent="174">
                    <mxGeometry width="30" height="30" as="geometry"/>
                </mxCell>
                <mxCell id="176" value="schedule_ID" style="shape=partialRectangle;connectable=0;fillColor=none;top=0;left=0;bottom=0;right=0;align=left;spacingLeft=6;fontStyle=5;overflow=hidden;" vertex="1" parent="174">
                    <mxGeometry x="30" width="180" height="30" as="geometry"/>
                </mxCell>
                <mxCell id="177" value="" style="shape=partialRectangle;collapsible=0;dropTarget=0;pointerEvents=0;fillColor=none;top=0;left=0;bottom=1;right=0;points=[[0,0.5],[1,0.5]];portConstraint=eastwest;" vertex="1" parent="173">
                    <mxGeometry y="60" width="210" height="30" as="geometry"/>
                </mxCell>
                <mxCell id="178" value="FK" style="shape=partialRectangle;connectable=0;fillColor=none;top=0;left=0;bottom=0;right=0;fontStyle=1;overflow=hidden;" vertex="1" parent="177">
                    <mxGeometry width="30" height="30" as="geometry"/>
                </mxCell>
                <mxCell id="179" value="list_ID" style="shape=partialRectangle;connectable=0;fillColor=none;top=0;left=0;bottom=0;right=0;align=left;spacingLeft=6;fontStyle=5;overflow=hidden;" vertex="1" parent="177">
                    <mxGeometry x="30" width="180" height="30" as="geometry"/>
                </mxCell>
                <mxCell id="180" value="" style="shape=partialRectangle;collapsible=0;dropTarget=0;pointerEvents=0;fillColor=none;top=0;left=0;bottom=0;right=0;points=[[0,0.5],[1,0.5]];portConstraint=eastwest;" vertex="1" parent="173">
                    <mxGeometry y="90" width="210" height="30" as="geometry"/>
                </mxCell>
                <mxCell id="181" value="" style="shape=partialRectangle;connectable=0;fillColor=none;top=0;left=0;bottom=0;right=0;editable=1;overflow=hidden;" vertex="1" parent="180">
                    <mxGeometry width="30" height="30" as="geometry"/>
                </mxCell>
                <mxCell id="182" value="strategy_ID" style="shape=partialRectangle;connectable=0;fillColor=none;top=0;left=0;bottom=0;right=0;align=left;spacingLeft=6;overflow=hidden;fontStyle=1" vertex="1" parent="180">
                    <mxGeometry x="30" width="180" height="30" as="geometry"/>
                </mxCell>
                <mxCell id="183" value="" style="shape=partialRectangle;collapsible=0;dropTarget=0;pointerEvents=0;fillColor=none;top=0;left=0;bottom=0;right=0;points=[[0,0.5],[1,0.5]];portConstraint=eastwest;" vertex="1" parent="173">
                    <mxGeometry y="120" width="210" height="20" as="geometry"/>
                </mxCell>
                <mxCell id="184" value="" style="shape=partialRectangle;connectable=0;fillColor=none;top=0;left=0;bottom=0;right=0;editable=1;overflow=hidden;" vertex="1" parent="183">
                    <mxGeometry width="30" height="20" as="geometry"/>
                </mxCell>
                <mxCell id="185" value="from_date" style="shape=partialRectangle;connectable=0;fillColor=none;top=0;left=0;bottom=0;right=0;align=left;spacingLeft=6;overflow=hidden;" vertex="1" parent="183">
                    <mxGeometry x="30" width="180" height="20" as="geometry"/>
                </mxCell>
                <mxCell id="186" value="" style="shape=partialRectangle;collapsible=0;dropTarget=0;pointerEvents=0;fillColor=none;top=0;left=0;bottom=0;right=0;points=[[0,0.5],[1,0.5]];portConstraint=eastwest;" vertex="1" parent="173">
                    <mxGeometry y="140" width="210" height="30" as="geometry"/>
                </mxCell>
                <mxCell id="187" value="" style="shape=partialRectangle;connectable=0;fillColor=none;top=0;left=0;bottom=0;right=0;editable=1;overflow=hidden;" vertex="1" parent="186">
                    <mxGeometry width="30" height="30" as="geometry"/>
                </mxCell>
                <mxCell id="188" value="to_date" style="shape=partialRectangle;connectable=0;fillColor=none;top=0;left=0;bottom=0;right=0;align=left;spacingLeft=6;overflow=hidden;" vertex="1" parent="186">
                    <mxGeometry x="30" width="180" height="30" as="geometry"/>
                </mxCell>
                <mxCell id="189" value="" style="shape=partialRectangle;collapsible=0;dropTarget=0;pointerEvents=0;fillColor=none;top=0;left=0;bottom=0;right=0;points=[[0,0.5],[1,0.5]];portConstraint=eastwest;" vertex="1" parent="173">
                    <mxGeometry y="170" width="210" height="30" as="geometry"/>
                </mxCell>
                <mxCell id="190" value="" style="shape=partialRectangle;connectable=0;fillColor=none;top=0;left=0;bottom=0;right=0;editable=1;overflow=hidden;" vertex="1" parent="189">
                    <mxGeometry width="30" height="30" as="geometry"/>
                </mxCell>
                <mxCell id="191" value="main_timeframe" style="shape=partialRectangle;connectable=0;fillColor=none;top=0;left=0;bottom=0;right=0;align=left;spacingLeft=6;overflow=hidden;" vertex="1" parent="189">
                    <mxGeometry x="30" width="180" height="30" as="geometry"/>
                </mxCell>
                <mxCell id="195" value="" style="shape=partialRectangle;collapsible=0;dropTarget=0;pointerEvents=0;fillColor=none;top=0;left=0;bottom=0;right=0;points=[[0,0.5],[1,0.5]];portConstraint=eastwest;" vertex="1" parent="173">
                    <mxGeometry y="200" width="210" height="30" as="geometry"/>
                </mxCell>
                <mxCell id="196" value="" style="shape=partialRectangle;connectable=0;fillColor=none;top=0;left=0;bottom=0;right=0;editable=1;overflow=hidden;" vertex="1" parent="195">
                    <mxGeometry width="30" height="30" as="geometry"/>
                </mxCell>
                <mxCell id="197" value="frequency (cron job)" style="shape=partialRectangle;connectable=0;fillColor=none;top=0;left=0;bottom=0;right=0;align=left;spacingLeft=6;overflow=hidden;" vertex="1" parent="195">
                    <mxGeometry x="30" width="180" height="30" as="geometry"/>
                </mxCell>
                <mxCell id="192" value="" style="shape=partialRectangle;collapsible=0;dropTarget=0;pointerEvents=0;fillColor=none;top=0;left=0;bottom=0;right=0;points=[[0,0.5],[1,0.5]];portConstraint=eastwest;" vertex="1" parent="173">
                    <mxGeometry y="230" width="210" height="30" as="geometry"/>
                </mxCell>
                <mxCell id="193" value="" style="shape=partialRectangle;connectable=0;fillColor=none;top=0;left=0;bottom=0;right=0;editable=1;overflow=hidden;" vertex="1" parent="192">
                    <mxGeometry width="30" height="30" as="geometry"/>
                </mxCell>
                <mxCell id="194" value="" style="shape=partialRectangle;connectable=0;fillColor=none;top=0;left=0;bottom=0;right=0;align=left;spacingLeft=6;overflow=hidden;" vertex="1" parent="192">
                    <mxGeometry x="30" width="180" height="30" as="geometry"/>
                </mxCell>
                <mxCell id="202" style="edgeStyle=orthogonalEdgeStyle;rounded=0;orthogonalLoop=1;jettySize=auto;html=1;" edge="1" parent="1" source="199" target="174">
                    <mxGeometry relative="1" as="geometry"/>
                </mxCell>
                <mxCell id="203" style="edgeStyle=orthogonalEdgeStyle;rounded=0;orthogonalLoop=1;jettySize=auto;html=1;entryX=0;entryY=0.5;entryDx=0;entryDy=0;" edge="1" parent="1" source="177" target="42">
                    <mxGeometry relative="1" as="geometry">
                        <Array as="points">
                            <mxPoint x="-380" y="555"/>
                            <mxPoint x="-380" y="1015"/>
                        </Array>
                    </mxGeometry>
                </mxCell>
                <mxCell id="229" value="FK" style="shape=partialRectangle;connectable=0;fillColor=none;top=0;left=0;bottom=0;right=0;fontStyle=1;overflow=hidden;" vertex="1" parent="1">
                    <mxGeometry x="-360" y="200" width="30" height="30" as="geometry"/>
                </mxCell>
                <mxCell id="230" style="edgeStyle=orthogonalEdgeStyle;rounded=0;orthogonalLoop=1;jettySize=auto;html=1;" edge="1" parent="1" source="205" target="121">
                    <mxGeometry relative="1" as="geometry">
                        <Array as="points">
                            <mxPoint x="-390" y="310"/>
                            <mxPoint x="-390" y="215"/>
                        </Array>
                    </mxGeometry>
                </mxCell>
                <mxCell id="231" style="edgeStyle=orthogonalEdgeStyle;rounded=0;orthogonalLoop=1;jettySize=auto;html=1;entryX=0;entryY=0.5;entryDx=0;entryDy=0;" edge="1" parent="1" source="205" target="180">
                    <mxGeometry relative="1" as="geometry"/>
                </mxCell>
                <mxCell id="232" value="FK" style="shape=partialRectangle;connectable=0;fillColor=none;top=0;left=0;bottom=0;right=0;fontStyle=1;overflow=hidden;" vertex="1" parent="1">
                    <mxGeometry x="-690" y="570" width="30" height="30" as="geometry"/>
                </mxCell>
                <mxCell id="277" style="edgeStyle=orthogonalEdgeStyle;rounded=0;orthogonalLoop=1;jettySize=auto;html=1;entryX=1;entryY=0.5;entryDx=0;entryDy=0;" edge="1" parent="1" source="237" target="VSjZPFVT8OjuE20q-rED-2">
                    <mxGeometry relative="1" as="geometry">
                        <Array as="points">
                            <mxPoint x="190" y="155"/>
                            <mxPoint x="190" y="350"/>
                            <mxPoint x="250" y="350"/>
                            <mxPoint x="250" y="545"/>
                        </Array>
                    </mxGeometry>
                </mxCell>
            </root>
        </mxGraphModel>
    </diagram>
</mxfile>